HIERARCHY
ROOT Hips
{
	OFFSET 0.000000 0.000000 0.000000
	CHANNELS 6 Xposition Yposition Zposition Xrotation Yrotation Zrotation
	JOINT LeftUpLeg_virtual
	{
		OFFSET 0.000000 0.000000 0.000000
		CHANNELS 3 Xrotation Yrotation Zrotation
		JOINT LeftUpLeg
		{
			OFFSET 11.394100 -6.187798 -0.413800
			CHANNELS 3 Xrotation Yrotation Zrotation
			JOINT LeftLeg
			{
				OFFSET 0.430247 -32.302673 3.732800
				CHANNELS 3 Xrotation Yrotation Zrotation
				JOINT LeftFoot
				{
					OFFSET -0.430247 -48.264931 -6.423300
					CHANNELS 3 Xrotation Yrotation Zrotation
					JOINT LeftToeBase
					{
						OFFSET 4.230900 -16.068199 23.438400
						CHANNELS 3 Xrotation Yrotation Zrotation
						JOINT LeftToe_End
						{
							OFFSET 4.510700 0.695400 19.974600
							CHANNELS 3 Xrotation Yrotation Zrotation
							End Site
							{
								OFFSET 0 0 0
							}
						}
					}
				}
			}
		}
	}
	JOINT RightUpLeg_virtual
	{
		OFFSET 0.000000 0.000000 0.000000
		CHANNELS 3 Xrotation Yrotation Zrotation
		JOINT RightUpLeg
		{
			OFFSET -11.333700 -6.187798 -0.413800
			CHANNELS 3 Xrotation Yrotation Zrotation
			JOINT RightLeg
			{
				OFFSET -0.430392 -32.302628 3.733000
				CHANNELS 3 Xrotation Yrotation Zrotation
				JOINT RightFoot
				{
					OFFSET 0.430392 -48.264973 -6.423500
					CHANNELS 3 Xrotation Yrotation Zrotation
					JOINT RightToeBase
					{
						OFFSET -4.230900 -16.068199 23.438400
						CHANNELS 3 Xrotation Yrotation Zrotation
						JOINT RightToe_End
						{
							OFFSET -4.510700 0.695400 19.974600
							CHANNELS 3 Xrotation Yrotation Zrotation
							End Site
							{
								OFFSET 0 0 0
							}
						}
					}
				}
			}
		}
	}
	JOINT Spine_virtual
	{
		OFFSET 0.000000 0.000000 0.000000
		CHANNELS 3 Xrotation Yrotation Zrotation
		JOINT Spine
		{
			OFFSET -0.002400 12.777504 0.315300
			CHANNELS 3 Xrotation Yrotation Zrotation
			JOINT Spine1
			{
				OFFSET -0.002067 5.816869 0.032633
				CHANNELS 3 Xrotation Yrotation Zrotation
				JOINT Spine1_split
				{
					OFFSET -0.002067 5.816869 0.032633
					CHANNELS 3 Xrotation Yrotation Zrotation
					JOINT Spine2
					{
						OFFSET -0.002067 5.816869 0.032633
						CHANNELS 3 Xrotation Yrotation Zrotation
						JOINT Neck_virtual
						{
							OFFSET 0.000000 0.000000 0.000000
							CHANNELS 3 Xrotation Yrotation Zrotation
							JOINT Neck
							{
								OFFSET -0.003700 21.199493 -0.826900
								CHANNELS 3 Xrotation Yrotation Zrotation
								JOINT Head
								{
									OFFSET 0.000000 20.442200 4.834800
									CHANNELS 3 Xrotation Yrotation Zrotation
									JOINT HeadTop_End
									{
										OFFSET 0.000000 34.668396 4.968400
										CHANNELS 3 Xrotation Yrotation Zrotation
										End Site
										{
											OFFSET 0 0 0
										}
									}
								}
							}
						}
						JOINT LeftShoulder_virtual
						{
							OFFSET 0.000000 0.000000 0.000000
							CHANNELS 3 Xrotation Yrotation Zrotation
							JOINT LeftShoulder
							{
								OFFSET 3.288150 8.794197 -1.372250
								CHANNELS 3 Xrotation Yrotation Zrotation
								JOINT LeftShoulder_split
								{
									OFFSET 3.288150 8.794197 -1.372250
									CHANNELS 3 Xrotation Yrotation Zrotation
									JOINT LeftArm
									{
										OFFSET 11.953299 -2.279007 -0.146200
										CHANNELS 3 Xrotation Yrotation Zrotation
										JOINT LeftForeArm
										{
											OFFSET 18.448900 0.000000 0.000000
											CHANNELS 3 Xrotation Yrotation Zrotation
											JOINT LeftHand
											{
												OFFSET 29.527798 0.000000 0.000000
												CHANNELS 3 Xrotation Yrotation Zrotation
												End Site
												{
													OFFSET 0 0 0
												}
											}
										}
									}
								}
							}
						}
						JOINT RightShoulder_virtual
						{
							OFFSET 0.000000 0.000000 0.000000
							CHANNELS 3 Xrotation Yrotation Zrotation
							JOINT RightShoulder
							{
								OFFSET -3.249400 8.794197 -1.372250
								CHANNELS 3 Xrotation Yrotation Zrotation
								JOINT RightShoulder_split
								{
									OFFSET -3.249400 8.794197 -1.372250
									CHANNELS 3 Xrotation Yrotation Zrotation
									JOINT RightArm
									{
										OFFSET -11.953299 -2.279007 -0.146200
										CHANNELS 3 Xrotation Yrotation Zrotation
										JOINT RightForeArm
										{
											OFFSET -18.448900 0.000000 0.000000
											CHANNELS 3 Xrotation Yrotation Zrotation
											JOINT RightHand
											{
												OFFSET -29.527802 0.000000 0.000000
												CHANNELS 3 Xrotation Yrotation Zrotation
												End Site
												{
													OFFSET 0 0 0
												}
											}
										}
									}
								}
							}
						}
					}
				}
			}
		}
	}
}
MOTION
Frames: 6
Frame Time: 0.03333333
-4.212454 85.982803 79.578712 0.000000 0.000000 0.000000 25.943239 16.691027 -4.408536 -11.364978 6.572469 7.108720 25.866328 11.934753 2.392329 -19.518288 12.278768 -29.598102 -19.902536 -9.556483 8.034195 0.000000 0.000000 0.000000 27.040570 16.161307 -4.444853 -80.907730 -6.597386 -6.480695 57.755151 -29.247348 -4.909480 6.696988 0.205386 -4.812283 -7.767209 16.938227 12.667685 0.000000 0.000000 0.000000 29.369895 9.690990 -3.376871 5.378804 -1.533341 -0.715834 8.646716 -0.336141 3.797313 1.081964 -0.367600 1.281105 0.000000 0.000000 0.000000 10.317346 0.158549 3.315010 -7.011824 -0.460628 -0.049066 -6.709422 6.244376 2.958094 0.000000 0.000000 0.000000 11.747334 -0.451113 3.420406 2.374506 -19.763726 3.313676 1.550591 -1.038110 -3.503114 -40.344042 -21.840817 -41.329304 108.712822 -63.603664 120.602194 0.000000 0.000000 0.000000 10.492056 0.291935 4.072204 3.222940 10.908307 -1.719762 2.750702 5.614652 0.601252 -46.248403 14.030008 35.353626 120.085613 46.742328 -141.526328 0.000000 0.000000 0.000000 
-4.274961 85.586502 80.061737 0.000000 0.000000 0.000000 26.092175 16.639594 -4.390333 -11.707945 6.688548 7.290232 26.410571 11.927364 2.476829 -19.381454 12.183982 -30.258551 -21.008561 -9.832529 8.109848 0.000000 0.000000 0.000000 27.230554 16.137116 -4.435574 -81.855173 -6.824772 -6.620993 58.638574 -29.417451 -4.743712 6.966240 0.041227 -4.854579 -8.568915 16.505992 13.242147 0.000000 0.000000 0.000000 29.544280 9.626216 -3.352961 5.436487 -1.457209 -0.705029 8.179012 -0.307464 3.782349 1.088780 -0.378988 1.258161 0.000000 0.000000 0.000000 9.842842 0.183930 3.308573 -7.250337 -0.428151 -0.168209 -6.727566 6.026851 2.975966 0.000000 0.000000 0.000000 11.263878 -0.415237 3.409127 2.503912 -19.835913 3.784017 1.564490 -0.996006 -3.456479 -40.812880 -21.977291 -41.226301 106.952908 -64.094816 118.917541 0.000000 0.000000 0.000000 10.016970 0.319785 4.050609 3.295384 10.716971 -2.124031 2.809638 5.664136 0.563904 -46.979988 14.074768 35.799374 119.608306 47.127247 -140.798981 0.000000 0.000000 0.000000 
-4.331983 85.219933 80.501266 0.000000 0.000000 0.000000 26.259548 16.573471 -4.392587 -12.116684 6.844169 7.506321 26.920994 11.915957 2.562396 -19.194918 12.041609 -30.920881 -22.090468 -10.126765 8.173194 0.000000 0.000000 0.000000 27.428329 16.079966 -4.440844 -82.759333 -7.067095 -6.807872 59.451230 -29.516307 -4.629067 7.175912 -0.013395 -4.767042 -9.291500 16.151978 13.698132 0.000000 0.000000 0.000000 29.723235 9.545743 -3.349951 5.526209 -1.386435 -0.693775 7.684670 -0.277497 3.775981 1.088003 -0.372786 1.242333 0.000000 0.000000 0.000000 9.335141 0.206431 3.306888 -7.480698 -0.375072 -0.307224 -6.741708 5.845939 2.994594 0.000000 0.000000 0.000000 10.749630 -0.382106 3.404037 2.622469 -19.910584 4.227514 1.587488 -0.959976 -3.393975 -41.425067 -22.175172 -41.203342 104.766489 -64.598645 116.774542 0.000000 0.000000 0.000000 9.511158 0.347251 4.036679 3.361224 10.515900 -2.551190 2.898035 5.720037 0.528505 -47.812782 14.058105 36.270719 118.993971 47.592485 -139.938446 0.000000 0.000000 0.000000 
-4.376886 84.871933 80.905975 0.000000 0.000000 0.000000 26.462388 16.497275 -4.436980 -12.569642 7.034769 7.770312 27.408656 11.910399 2.650028 -18.993624 11.867545 -31.550635 -23.144354 -10.437111 8.219466 0.000000 0.000000 0.000000 27.647390 16.002862 -4.482388 -83.572617 -7.335272 -6.984936 60.197121 -29.578868 -4.558724 7.139378 0.015151 -4.708267 -9.798523 15.872511 14.096486 0.000000 0.000000 0.000000 29.917028 9.432916 -3.373187 5.631522 -1.318741 -0.677714 7.166205 -0.247767 3.771382 1.092273 -0.341763 1.237381 0.000000 0.000000 0.000000 8.792234 0.223920 3.301360 -7.691702 -0.306797 -0.453198 -6.773389 5.692627 3.026260 0.000000 0.000000 0.000000 10.204967 -0.355017 3.398059 2.731153 -19.985355 4.657564 1.608149 -0.925342 -3.334175 -42.148291 -22.451204 -41.246495 102.177547 -65.088076 114.194103 0.000000 0.000000 0.000000 8.970871 0.370634 4.022850 3.421897 10.312592 -2.990680 3.006819 5.763500 0.496372 -48.700868 13.929033 36.769572 118.258182 48.126411 -138.971619 0.000000 0.000000 0.000000 
-4.409732 84.527313 81.284691 0.000000 0.000000 0.000000 26.715445 16.404251 -4.524881 -13.039299 7.253337 8.083492 27.882927 11.919571 2.745477 -18.832401 11.678419 -32.118070 -24.193213 -10.765341 8.259462 0.000000 0.000000 0.000000 27.897269 15.910729 -4.565812 -84.292123 -7.623765 -7.127810 60.965162 -29.626731 -4.485606 6.854221 0.077805 -4.796142 -10.184931 15.620311 14.536348 0.000000 0.000000 0.000000 30.140710 9.297365 -3.421245 5.733892 -1.250597 -0.655666 6.628820 -0.220160 3.761957 1.094437 -0.317245 1.246173 0.000000 0.000000 0.000000 8.219626 0.236368 3.286638 -7.872825 -0.231579 -0.593907 -6.842263 5.549973 3.074588 0.000000 0.000000 0.000000 9.631722 -0.333587 3.386506 2.833387 -20.061929 5.087624 1.639909 -0.884253 -3.284279 -42.932100 -22.803025 -41.309565 99.288629 -65.544216 111.283630 0.000000 0.000000 0.000000 8.398379 0.388355 4.000970 3.477430 10.109295 -3.440358 3.129296 5.799254 0.458742 -49.596128 13.684086 37.292136 117.451646 48.700000 -137.956297 0.000000 0.000000 0.000000 
-4.429527 84.185593 81.660904 0.000000 0.000000 0.000000 27.027885 16.296558 -4.652143 -13.496350 7.477251 8.429128 28.351250 11.943120 2.854689 -18.743081 11.491917 -32.615014 -25.242766 -11.105916 8.286818 0.000000 0.000000 0.000000 28.181576 15.816787 -4.682393 -84.980626 -7.906584 -7.240428 61.808410 -29.640897 -4.394942 6.507443 0.144064 -4.975949 -10.714383 15.317831 15.078525 0.000000 0.000000 0.000000 30.396309 9.142788 -3.488625 5.813453 -1.182063 -0.632387 6.077307 -0.194127 3.743940 1.079856 -0.306654 1.256870 0.000000 0.000000 0.000000 7.627738 0.244852 3.259634 -8.017671 -0.161090 -0.724328 -6.960172 5.403071 3.137715 0.000000 0.000000 0.000000 9.035255 -0.316790 3.367463 2.930110 -20.141608 5.521703 1.660029 -0.832591 -3.250908 -43.719751 -23.206729 -41.335694 96.253792 -65.961343 108.204253 0.000000 0.000000 0.000000 7.797945 0.398163 3.967752 3.527633 9.916140 -3.889354 3.252609 5.814824 0.406906 -50.452043 13.351573 37.826639 116.632297 49.279818 -136.950115 0.000000 0.000000 0.000000 
